<svg xmlns="http://www.w3.org/2000/svg" viewBox="0 0 340 56" role="img" aria-label="SiamDrive VIP logo">
  <rect x="2" y="10" width="36" height="36" rx="10" fill="#0A0A0A"/>
  <path d="M11 34c0-2 1.6-3.4 3.4-4l9.4-2.9c1-.3 1.7-1.1 1.7-2.1 0-1.2-1-2.2-2.2-2.2h-8.9c-1.5 0-2.9.7-3.8 1.9" stroke="#FFFFFF" stroke-width="2.6" fill="none" stroke-linecap="round"/>
  <path d="M29 22c0 2-1.6 3.4-3.4 4l-9.4 2.9c-1 .3-1.7 1.1-1.7 2.1 0 1.2 1 2.2 2.2 2.2h8.9c1.5 0 2.9-.7 3.8-1.9" stroke="#FFFFFF" stroke-width="2.6" fill="none" stroke-linecap="round" transform="translate(2,4)"/>
  <text x="50" y="36" font-family="Arial, Inter, Helvetica, sans-serif" font-size="22" font-weight="700" letter-spacing="1.5" fill="#0A0A0A">SIAMDRIVE</text>
  <text x="192" y="36" font-family="Arial, Inter, Helvetica, sans-serif" font-size="22" font-weight="400" letter-spacing="1.5" fill="#9A9A9A">.VIP</text>
</svg>
